<mxfile host="app.diagrams.net" modified="2021-06-16T03:07:12.468Z" agent="5.0 (Macintosh; Intel Mac OS X 10_15_7) AppleWebKit/605.1.15 (KHTML, like Gecko) Version/14.1 Safari/605.1.15" etag="Ya4RqWAo5UoYnfUGS0zH" version="14.7.9" type="github">
  <diagram id="m1uV8Q6lVXMQCOGF2VV3" name="第 1 页">
    <mxGraphModel dx="1825" dy="1045" grid="1" gridSize="10" guides="1" tooltips="1" connect="1" arrows="1" fold="1" page="1" pageScale="1" pageWidth="1600" pageHeight="900" math="0" shadow="0">
      <root>
        <mxCell id="0" />
        <mxCell id="1" parent="0" />
        <mxCell id="Z7DHBaDbeOiMeZ4jyq0t-37" style="edgeStyle=orthogonalEdgeStyle;rounded=0;orthogonalLoop=1;jettySize=auto;html=1;exitX=1;exitY=0.5;exitDx=0;exitDy=0;entryX=0;entryY=0.5;entryDx=0;entryDy=0;fontFamily=Tahoma;fontSize=16;startArrow=none;startFill=0;" parent="1" source="Z7DHBaDbeOiMeZ4jyq0t-39" target="Z7DHBaDbeOiMeZ4jyq0t-2" edge="1">
          <mxGeometry relative="1" as="geometry" />
        </mxCell>
        <mxCell id="Z7DHBaDbeOiMeZ4jyq0t-38" style="edgeStyle=orthogonalEdgeStyle;rounded=0;orthogonalLoop=1;jettySize=auto;html=1;exitX=0.5;exitY=1;exitDx=0;exitDy=0;entryX=0;entryY=0.5;entryDx=0;entryDy=0;fontFamily=Tahoma;fontSize=16;startArrow=none;startFill=0;" parent="1" source="Z7DHBaDbeOiMeZ4jyq0t-1" target="Z7DHBaDbeOiMeZ4jyq0t-3" edge="1">
          <mxGeometry relative="1" as="geometry" />
        </mxCell>
        <mxCell id="Z7DHBaDbeOiMeZ4jyq0t-74" style="edgeStyle=orthogonalEdgeStyle;rounded=0;orthogonalLoop=1;jettySize=auto;html=1;exitX=0.5;exitY=0;exitDx=0;exitDy=0;entryX=0;entryY=0.5;entryDx=0;entryDy=0;fontFamily=Tahoma;fontSize=16;startArrow=none;startFill=0;" parent="1" source="Z7DHBaDbeOiMeZ4jyq0t-1" target="Z7DHBaDbeOiMeZ4jyq0t-6" edge="1">
          <mxGeometry relative="1" as="geometry" />
        </mxCell>
        <mxCell id="Z7DHBaDbeOiMeZ4jyq0t-75" style="edgeStyle=orthogonalEdgeStyle;rounded=0;orthogonalLoop=1;jettySize=auto;html=1;exitX=0.5;exitY=0;exitDx=0;exitDy=0;entryX=0;entryY=0.5;entryDx=0;entryDy=0;fontFamily=Tahoma;fontSize=16;startArrow=none;startFill=0;" parent="1" source="Z7DHBaDbeOiMeZ4jyq0t-1" target="Z7DHBaDbeOiMeZ4jyq0t-7" edge="1">
          <mxGeometry relative="1" as="geometry" />
        </mxCell>
        <mxCell id="Z7DHBaDbeOiMeZ4jyq0t-1" value="正课排课结果表" style="shape=cylinder;whiteSpace=wrap;html=1;boundedLbl=1;backgroundOutline=1;fontFamily=Tahoma;fontSize=16;" parent="1" vertex="1">
          <mxGeometry x="580" y="372" width="90" height="120" as="geometry" />
        </mxCell>
        <mxCell id="Z7DHBaDbeOiMeZ4jyq0t-51" style="edgeStyle=orthogonalEdgeStyle;rounded=0;orthogonalLoop=1;jettySize=auto;html=1;exitX=0.5;exitY=1;exitDx=0;exitDy=0;entryX=0.5;entryY=0;entryDx=0;entryDy=0;fontFamily=Tahoma;fontSize=16;startArrow=classic;startFill=1;" parent="1" source="Z7DHBaDbeOiMeZ4jyq0t-2" target="Z7DHBaDbeOiMeZ4jyq0t-3" edge="1">
          <mxGeometry relative="1" as="geometry" />
        </mxCell>
        <mxCell id="Z7DHBaDbeOiMeZ4jyq0t-56" style="edgeStyle=orthogonalEdgeStyle;rounded=0;orthogonalLoop=1;jettySize=auto;html=1;exitX=1;exitY=0.5;exitDx=0;exitDy=0;entryX=0;entryY=0.5;entryDx=0;entryDy=0;fontFamily=Tahoma;fontSize=16;startArrow=none;startFill=0;" parent="1" source="Z7DHBaDbeOiMeZ4jyq0t-2" target="Z7DHBaDbeOiMeZ4jyq0t-55" edge="1">
          <mxGeometry relative="1" as="geometry" />
        </mxCell>
        <mxCell id="Z7DHBaDbeOiMeZ4jyq0t-2" value="课中应答题" style="shape=cylinder;whiteSpace=wrap;html=1;boundedLbl=1;backgroundOutline=1;fontFamily=Tahoma;fontSize=16;" parent="1" vertex="1">
          <mxGeometry x="820" y="470" width="90" height="120" as="geometry" />
        </mxCell>
        <mxCell id="Z7DHBaDbeOiMeZ4jyq0t-57" style="edgeStyle=orthogonalEdgeStyle;rounded=0;orthogonalLoop=1;jettySize=auto;html=1;exitX=1;exitY=0.5;exitDx=0;exitDy=0;entryX=0;entryY=0.5;entryDx=0;entryDy=0;fontFamily=Tahoma;fontSize=16;startArrow=none;startFill=0;" parent="1" source="Z7DHBaDbeOiMeZ4jyq0t-59" target="Z7DHBaDbeOiMeZ4jyq0t-55" edge="1">
          <mxGeometry relative="1" as="geometry" />
        </mxCell>
        <mxCell id="Z7DHBaDbeOiMeZ4jyq0t-3" value="课后应答题" style="shape=cylinder;whiteSpace=wrap;html=1;boundedLbl=1;backgroundOutline=1;fontFamily=Tahoma;fontSize=16;" parent="1" vertex="1">
          <mxGeometry x="820" y="660" width="90" height="120" as="geometry" />
        </mxCell>
        <mxCell id="Z7DHBaDbeOiMeZ4jyq0t-73" style="edgeStyle=orthogonalEdgeStyle;rounded=0;orthogonalLoop=1;jettySize=auto;html=1;exitX=1;exitY=0.5;exitDx=0;exitDy=0;entryX=0;entryY=0.5;entryDx=0;entryDy=0;fontFamily=Tahoma;fontSize=16;startArrow=classic;startFill=1;" parent="1" source="Z7DHBaDbeOiMeZ4jyq0t-4" target="Z7DHBaDbeOiMeZ4jyq0t-67" edge="1">
          <mxGeometry relative="1" as="geometry" />
        </mxCell>
        <mxCell id="Z7DHBaDbeOiMeZ4jyq0t-4" value="末级知识点应答题" style="shape=cylinder;whiteSpace=wrap;html=1;boundedLbl=1;backgroundOutline=1;fontFamily=Tahoma;fontSize=16;" parent="1" vertex="1">
          <mxGeometry x="1260" y="470" width="90" height="120" as="geometry" />
        </mxCell>
        <mxCell id="Z7DHBaDbeOiMeZ4jyq0t-31" style="edgeStyle=orthogonalEdgeStyle;rounded=0;orthogonalLoop=1;jettySize=auto;html=1;exitX=1;exitY=0.5;exitDx=0;exitDy=0;entryX=0;entryY=0.5;entryDx=0;entryDy=0;fontFamily=Tahoma;fontSize=16;startArrow=none;startFill=0;" parent="1" source="Z7DHBaDbeOiMeZ4jyq0t-5" target="Z7DHBaDbeOiMeZ4jyq0t-8" edge="1">
          <mxGeometry relative="1" as="geometry" />
        </mxCell>
        <mxCell id="Z7DHBaDbeOiMeZ4jyq0t-5" value="知识图谱" style="shape=cylinder;whiteSpace=wrap;html=1;boundedLbl=1;backgroundOutline=1;fontFamily=Tahoma;fontSize=16;" parent="1" vertex="1">
          <mxGeometry x="1070" y="90" width="90" height="120" as="geometry" />
        </mxCell>
        <mxCell id="Z7DHBaDbeOiMeZ4jyq0t-49" style="edgeStyle=orthogonalEdgeStyle;rounded=0;orthogonalLoop=1;jettySize=auto;html=1;exitX=0.5;exitY=1;exitDx=0;exitDy=0;entryX=0.5;entryY=0;entryDx=0;entryDy=0;fontFamily=Tahoma;fontSize=16;startArrow=classic;startFill=1;" parent="1" source="Z7DHBaDbeOiMeZ4jyq0t-6" target="Z7DHBaDbeOiMeZ4jyq0t-7" edge="1">
          <mxGeometry relative="1" as="geometry" />
        </mxCell>
        <mxCell id="Z7DHBaDbeOiMeZ4jyq0t-53" style="edgeStyle=orthogonalEdgeStyle;rounded=0;orthogonalLoop=1;jettySize=auto;html=1;exitX=1;exitY=0.5;exitDx=0;exitDy=0;entryX=0;entryY=0.5;entryDx=0;entryDy=0;fontFamily=Tahoma;fontSize=16;startArrow=none;startFill=0;" parent="1" source="Z7DHBaDbeOiMeZ4jyq0t-6" target="Z7DHBaDbeOiMeZ4jyq0t-5" edge="1">
          <mxGeometry relative="1" as="geometry" />
        </mxCell>
        <mxCell id="Z7DHBaDbeOiMeZ4jyq0t-6" value="课中实际答题" style="shape=cylinder;whiteSpace=wrap;html=1;boundedLbl=1;backgroundOutline=1;fontFamily=Tahoma;fontSize=16;" parent="1" vertex="1">
          <mxGeometry x="820" y="90" width="90" height="120" as="geometry" />
        </mxCell>
        <mxCell id="Z7DHBaDbeOiMeZ4jyq0t-54" style="edgeStyle=orthogonalEdgeStyle;rounded=0;orthogonalLoop=1;jettySize=auto;html=1;exitX=1;exitY=0.5;exitDx=0;exitDy=0;entryX=0;entryY=0.5;entryDx=0;entryDy=0;fontFamily=Tahoma;fontSize=16;startArrow=none;startFill=0;" parent="1" source="Z7DHBaDbeOiMeZ4jyq0t-65" target="Z7DHBaDbeOiMeZ4jyq0t-5" edge="1">
          <mxGeometry relative="1" as="geometry" />
        </mxCell>
        <mxCell id="Z7DHBaDbeOiMeZ4jyq0t-7" value="课后实际答题" style="shape=cylinder;whiteSpace=wrap;html=1;boundedLbl=1;backgroundOutline=1;fontFamily=Tahoma;fontSize=16;" parent="1" vertex="1">
          <mxGeometry x="820" y="280" width="90" height="120" as="geometry" />
        </mxCell>
        <mxCell id="Z7DHBaDbeOiMeZ4jyq0t-68" style="edgeStyle=orthogonalEdgeStyle;rounded=0;orthogonalLoop=1;jettySize=auto;html=1;exitX=1;exitY=0.5;exitDx=0;exitDy=0;entryX=0;entryY=0.5;entryDx=0;entryDy=0;fontFamily=Tahoma;fontSize=16;startArrow=none;startFill=0;" parent="1" source="Z7DHBaDbeOiMeZ4jyq0t-8" target="Z7DHBaDbeOiMeZ4jyq0t-67" edge="1">
          <mxGeometry relative="1" as="geometry" />
        </mxCell>
        <mxCell id="Z7DHBaDbeOiMeZ4jyq0t-70" style="edgeStyle=orthogonalEdgeStyle;rounded=0;orthogonalLoop=1;jettySize=auto;html=1;exitX=0.5;exitY=1;exitDx=0;exitDy=0;entryX=0.5;entryY=0;entryDx=0;entryDy=0;fontFamily=Tahoma;fontSize=16;startArrow=none;startFill=1;" parent="1" source="Z7DHBaDbeOiMeZ4jyq0t-71" target="Z7DHBaDbeOiMeZ4jyq0t-4" edge="1">
          <mxGeometry relative="1" as="geometry" />
        </mxCell>
        <mxCell id="Z7DHBaDbeOiMeZ4jyq0t-8" value="末级知识点实际答题" style="shape=cylinder;whiteSpace=wrap;html=1;boundedLbl=1;backgroundOutline=1;fontFamily=Tahoma;fontSize=16;" parent="1" vertex="1">
          <mxGeometry x="1260" y="90" width="90" height="120" as="geometry" />
        </mxCell>
        <mxCell id="Z7DHBaDbeOiMeZ4jyq0t-27" value="" style="shape=image;html=1;verticalAlign=top;verticalLabelPosition=bottom;labelBackgroundColor=#ffffff;imageAspect=0;aspect=fixed;image=https://cdn0.iconfinder.com/data/icons/fatcow/32x32/sql_join_outer.png;fontFamily=Tahoma;fontSize=16;" parent="1" vertex="1">
          <mxGeometry x="849" y="234" width="32" height="32" as="geometry" />
        </mxCell>
        <mxCell id="Z7DHBaDbeOiMeZ4jyq0t-39" value="" style="shape=image;html=1;verticalAlign=top;verticalLabelPosition=bottom;labelBackgroundColor=#ffffff;imageAspect=0;aspect=fixed;image=https://cdn0.iconfinder.com/data/icons/fatcow/32x32/sql_join_left.png;fontFamily=Tahoma;fontSize=16;" parent="1" vertex="1">
          <mxGeometry x="719" y="514" width="32" height="32" as="geometry" />
        </mxCell>
        <mxCell id="Z7DHBaDbeOiMeZ4jyq0t-40" value="" style="edgeStyle=orthogonalEdgeStyle;rounded=0;orthogonalLoop=1;jettySize=auto;html=1;exitX=0.5;exitY=1;exitDx=0;exitDy=0;entryX=0;entryY=0.5;entryDx=0;entryDy=0;fontFamily=Tahoma;fontSize=16;startArrow=none;startFill=0;endArrow=none;" parent="1" source="Z7DHBaDbeOiMeZ4jyq0t-1" target="Z7DHBaDbeOiMeZ4jyq0t-39" edge="1">
          <mxGeometry relative="1" as="geometry">
            <mxPoint x="625.0000000000002" y="310" as="sourcePoint" />
            <mxPoint x="819.9999999999998" y="530.0000000000002" as="targetPoint" />
          </mxGeometry>
        </mxCell>
        <mxCell id="Z7DHBaDbeOiMeZ4jyq0t-41" value="" style="shape=image;html=1;verticalAlign=top;verticalLabelPosition=bottom;labelBackgroundColor=#ffffff;imageAspect=0;aspect=fixed;image=https://cdn0.iconfinder.com/data/icons/fatcow/32x32/sql_join_left.png;fontFamily=Tahoma;fontSize=16;" parent="1" vertex="1">
          <mxGeometry x="719" y="704" width="32" height="32" as="geometry" />
        </mxCell>
        <mxCell id="Z7DHBaDbeOiMeZ4jyq0t-52" value="" style="shape=image;html=1;verticalAlign=top;verticalLabelPosition=bottom;labelBackgroundColor=#ffffff;imageAspect=0;aspect=fixed;image=https://cdn0.iconfinder.com/data/icons/fatcow/32x32/sql_join_outer.png;fontFamily=Tahoma;fontSize=16;" parent="1" vertex="1">
          <mxGeometry x="849" y="610" width="32" height="32" as="geometry" />
        </mxCell>
        <mxCell id="Z7DHBaDbeOiMeZ4jyq0t-58" style="edgeStyle=orthogonalEdgeStyle;rounded=0;orthogonalLoop=1;jettySize=auto;html=1;exitX=1;exitY=0.5;exitDx=0;exitDy=0;entryX=0;entryY=0.5;entryDx=0;entryDy=0;fontFamily=Tahoma;fontSize=16;startArrow=none;startFill=0;" parent="1" source="Z7DHBaDbeOiMeZ4jyq0t-55" target="Z7DHBaDbeOiMeZ4jyq0t-4" edge="1">
          <mxGeometry relative="1" as="geometry" />
        </mxCell>
        <mxCell id="Z7DHBaDbeOiMeZ4jyq0t-55" value="知识图谱" style="shape=cylinder;whiteSpace=wrap;html=1;boundedLbl=1;backgroundOutline=1;fontFamily=Tahoma;fontSize=16;" parent="1" vertex="1">
          <mxGeometry x="1070" y="470" width="90" height="120" as="geometry" />
        </mxCell>
        <mxCell id="Z7DHBaDbeOiMeZ4jyq0t-59" value="" style="shape=image;html=1;verticalAlign=top;verticalLabelPosition=bottom;labelBackgroundColor=#ffffff;imageAspect=0;aspect=fixed;image=https://cdn0.iconfinder.com/data/icons/fatcow/32x32/sql_join_inner.png;fontFamily=Tahoma;fontSize=16;" parent="1" vertex="1">
          <mxGeometry x="974" y="514" width="32" height="32" as="geometry" />
        </mxCell>
        <mxCell id="Z7DHBaDbeOiMeZ4jyq0t-60" value="" style="edgeStyle=orthogonalEdgeStyle;rounded=0;orthogonalLoop=1;jettySize=auto;html=1;exitX=1;exitY=0.5;exitDx=0;exitDy=0;entryX=0;entryY=0.5;entryDx=0;entryDy=0;fontFamily=Tahoma;fontSize=16;startArrow=none;startFill=0;endArrow=none;" parent="1" source="Z7DHBaDbeOiMeZ4jyq0t-3" target="Z7DHBaDbeOiMeZ4jyq0t-59" edge="1">
          <mxGeometry relative="1" as="geometry">
            <mxPoint x="909.9999999999998" y="719.9999999999998" as="sourcePoint" />
            <mxPoint x="1069.9999999999998" y="530.0000000000002" as="targetPoint" />
          </mxGeometry>
        </mxCell>
        <mxCell id="Z7DHBaDbeOiMeZ4jyq0t-65" value="" style="shape=image;html=1;verticalAlign=top;verticalLabelPosition=bottom;labelBackgroundColor=#ffffff;imageAspect=0;aspect=fixed;image=https://cdn0.iconfinder.com/data/icons/fatcow/32x32/sql_join_inner.png;fontFamily=Tahoma;fontSize=16;" parent="1" vertex="1">
          <mxGeometry x="974" y="134" width="32" height="32" as="geometry" />
        </mxCell>
        <mxCell id="Z7DHBaDbeOiMeZ4jyq0t-66" value="" style="edgeStyle=orthogonalEdgeStyle;rounded=0;orthogonalLoop=1;jettySize=auto;html=1;exitX=1;exitY=0.5;exitDx=0;exitDy=0;entryX=0;entryY=0.5;entryDx=0;entryDy=0;fontFamily=Tahoma;fontSize=16;startArrow=none;startFill=0;endArrow=none;" parent="1" source="Z7DHBaDbeOiMeZ4jyq0t-7" target="Z7DHBaDbeOiMeZ4jyq0t-65" edge="1">
          <mxGeometry relative="1" as="geometry">
            <mxPoint x="909.9999999999998" y="340" as="sourcePoint" />
            <mxPoint x="1069.9999999999998" y="150" as="targetPoint" />
          </mxGeometry>
        </mxCell>
        <mxCell id="Z7DHBaDbeOiMeZ4jyq0t-67" value="末级知识点答题数据" style="shape=cylinder;whiteSpace=wrap;html=1;boundedLbl=1;backgroundOutline=1;fontFamily=Tahoma;fontSize=16;" parent="1" vertex="1">
          <mxGeometry x="1480" y="280" width="90" height="120" as="geometry" />
        </mxCell>
        <mxCell id="Z7DHBaDbeOiMeZ4jyq0t-71" value="" style="shape=image;html=1;verticalAlign=top;verticalLabelPosition=bottom;labelBackgroundColor=#ffffff;imageAspect=0;aspect=fixed;image=https://cdn0.iconfinder.com/data/icons/fatcow/32x32/sql_join_inner.png;fontFamily=Tahoma;fontSize=16;" parent="1" vertex="1">
          <mxGeometry x="1288" y="308" width="32" height="32" as="geometry" />
        </mxCell>
        <mxCell id="Z7DHBaDbeOiMeZ4jyq0t-72" value="" style="edgeStyle=orthogonalEdgeStyle;rounded=0;orthogonalLoop=1;jettySize=auto;html=1;exitX=0.5;exitY=1;exitDx=0;exitDy=0;entryX=0.5;entryY=0;entryDx=0;entryDy=0;fontFamily=Tahoma;fontSize=16;startArrow=classic;startFill=1;endArrow=none;" parent="1" source="Z7DHBaDbeOiMeZ4jyq0t-8" target="Z7DHBaDbeOiMeZ4jyq0t-71" edge="1">
          <mxGeometry relative="1" as="geometry">
            <mxPoint x="1305" y="210" as="sourcePoint" />
            <mxPoint x="1305" y="470" as="targetPoint" />
          </mxGeometry>
        </mxCell>
        <mxCell id="Z7DHBaDbeOiMeZ4jyq0t-76" value="" style="shape=image;html=1;verticalAlign=top;verticalLabelPosition=bottom;labelBackgroundColor=#ffffff;imageAspect=0;aspect=fixed;image=https://cdn0.iconfinder.com/data/icons/fatcow/32x32/sql_join_left.png;fontFamily=Tahoma;fontSize=16;" parent="1" vertex="1">
          <mxGeometry x="719" y="134" width="32" height="32" as="geometry" />
        </mxCell>
        <mxCell id="Z7DHBaDbeOiMeZ4jyq0t-77" value="" style="shape=image;html=1;verticalAlign=top;verticalLabelPosition=bottom;labelBackgroundColor=#ffffff;imageAspect=0;aspect=fixed;image=https://cdn0.iconfinder.com/data/icons/fatcow/32x32/sql_join_left.png;fontFamily=Tahoma;fontSize=16;" parent="1" vertex="1">
          <mxGeometry x="719" y="324" width="32" height="32" as="geometry" />
        </mxCell>
        <mxCell id="L8lNgKpOyZHm4ycNdc2e-29" style="edgeStyle=orthogonalEdgeStyle;rounded=0;orthogonalLoop=1;jettySize=auto;html=1;entryX=0;entryY=0.5;entryDx=0;entryDy=0;startArrow=none;startFill=0;endArrow=classic;endFill=1;" edge="1" parent="1" source="Z7DHBaDbeOiMeZ4jyq0t-78" target="L8lNgKpOyZHm4ycNdc2e-2">
          <mxGeometry relative="1" as="geometry" />
        </mxCell>
        <mxCell id="L8lNgKpOyZHm4ycNdc2e-30" style="edgeStyle=orthogonalEdgeStyle;rounded=0;orthogonalLoop=1;jettySize=auto;html=1;entryX=0;entryY=0.5;entryDx=0;entryDy=0;startArrow=none;startFill=0;endArrow=classic;endFill=1;" edge="1" parent="1" source="Z7DHBaDbeOiMeZ4jyq0t-78" target="L8lNgKpOyZHm4ycNdc2e-4">
          <mxGeometry relative="1" as="geometry" />
        </mxCell>
        <mxCell id="L8lNgKpOyZHm4ycNdc2e-31" style="edgeStyle=orthogonalEdgeStyle;rounded=0;orthogonalLoop=1;jettySize=auto;html=1;entryX=0;entryY=0.5;entryDx=0;entryDy=0;startArrow=none;startFill=0;endArrow=classic;endFill=1;" edge="1" parent="1" source="Z7DHBaDbeOiMeZ4jyq0t-78" target="L8lNgKpOyZHm4ycNdc2e-3">
          <mxGeometry relative="1" as="geometry" />
        </mxCell>
        <mxCell id="L8lNgKpOyZHm4ycNdc2e-32" style="edgeStyle=orthogonalEdgeStyle;rounded=0;orthogonalLoop=1;jettySize=auto;html=1;entryX=0;entryY=0.5;entryDx=0;entryDy=0;startArrow=none;startFill=0;endArrow=classic;endFill=1;" edge="1" parent="1" source="Z7DHBaDbeOiMeZ4jyq0t-78" target="L8lNgKpOyZHm4ycNdc2e-1">
          <mxGeometry relative="1" as="geometry" />
        </mxCell>
        <mxCell id="Z7DHBaDbeOiMeZ4jyq0t-78" value="" style="pointerEvents=1;shadow=0;dashed=0;html=1;strokeColor=none;labelPosition=center;verticalLabelPosition=bottom;verticalAlign=top;align=center;outlineConnect=0;shape=mxgraph.veeam2.running_playing;fontFamily=Tahoma;fontSize=22;fillColor=#333333;" parent="1" vertex="1">
          <mxGeometry x="77" y="406" width="52" height="52" as="geometry" />
        </mxCell>
        <mxCell id="L8lNgKpOyZHm4ycNdc2e-1" value="课程维度表" style="shape=cylinder;whiteSpace=wrap;html=1;boundedLbl=1;backgroundOutline=1;fontFamily=Tahoma;fontSize=16;" vertex="1" parent="1">
          <mxGeometry x="237" y="660" width="90" height="120" as="geometry" />
        </mxCell>
        <mxCell id="L8lNgKpOyZHm4ycNdc2e-14" style="edgeStyle=orthogonalEdgeStyle;rounded=0;orthogonalLoop=1;jettySize=auto;html=1;exitX=0.5;exitY=1;exitDx=0;exitDy=0;" edge="1" parent="1" source="L8lNgKpOyZHm4ycNdc2e-2" target="L8lNgKpOyZHm4ycNdc2e-4">
          <mxGeometry relative="1" as="geometry" />
        </mxCell>
        <mxCell id="L8lNgKpOyZHm4ycNdc2e-2" value="user注册表" style="shape=cylinder;whiteSpace=wrap;html=1;boundedLbl=1;backgroundOutline=1;fontFamily=Tahoma;fontSize=16;" vertex="1" parent="1">
          <mxGeometry x="237" y="90" width="90" height="120" as="geometry" />
        </mxCell>
        <mxCell id="L8lNgKpOyZHm4ycNdc2e-7" style="edgeStyle=orthogonalEdgeStyle;rounded=0;orthogonalLoop=1;jettySize=auto;html=1;exitX=0.5;exitY=1;exitDx=0;exitDy=0;entryX=0.5;entryY=0;entryDx=0;entryDy=0;" edge="1" parent="1" source="L8lNgKpOyZHm4ycNdc2e-3" target="L8lNgKpOyZHm4ycNdc2e-1">
          <mxGeometry relative="1" as="geometry" />
        </mxCell>
        <mxCell id="L8lNgKpOyZHm4ycNdc2e-9" style="edgeStyle=orthogonalEdgeStyle;rounded=0;orthogonalLoop=1;jettySize=auto;html=1;exitX=0.5;exitY=0;exitDx=0;exitDy=0;entryX=0.5;entryY=1;entryDx=0;entryDy=0;" edge="1" parent="1" source="L8lNgKpOyZHm4ycNdc2e-3" target="L8lNgKpOyZHm4ycNdc2e-4">
          <mxGeometry relative="1" as="geometry" />
        </mxCell>
        <mxCell id="L8lNgKpOyZHm4ycNdc2e-25" style="edgeStyle=orthogonalEdgeStyle;rounded=0;orthogonalLoop=1;jettySize=auto;html=1;exitX=1;exitY=0.5;exitDx=0;exitDy=0;startArrow=none;startFill=0;endArrow=classic;endFill=1;" edge="1" parent="1" source="L8lNgKpOyZHm4ycNdc2e-3" target="L8lNgKpOyZHm4ycNdc2e-19">
          <mxGeometry relative="1" as="geometry" />
        </mxCell>
        <mxCell id="L8lNgKpOyZHm4ycNdc2e-3" value="课程表" style="shape=cylinder;whiteSpace=wrap;html=1;boundedLbl=1;backgroundOutline=1;fontFamily=Tahoma;fontSize=16;" vertex="1" parent="1">
          <mxGeometry x="237" y="470" width="90" height="120" as="geometry" />
        </mxCell>
        <mxCell id="L8lNgKpOyZHm4ycNdc2e-6" style="edgeStyle=orthogonalEdgeStyle;rounded=0;orthogonalLoop=1;jettySize=auto;html=1;exitX=0.5;exitY=1;exitDx=0;exitDy=0;entryX=0.5;entryY=0;entryDx=0;entryDy=0;" edge="1" parent="1" source="L8lNgKpOyZHm4ycNdc2e-4" target="L8lNgKpOyZHm4ycNdc2e-3">
          <mxGeometry relative="1" as="geometry" />
        </mxCell>
        <mxCell id="L8lNgKpOyZHm4ycNdc2e-13" style="edgeStyle=orthogonalEdgeStyle;rounded=0;orthogonalLoop=1;jettySize=auto;html=1;exitX=0.5;exitY=0;exitDx=0;exitDy=0;entryX=0.5;entryY=1;entryDx=0;entryDy=0;" edge="1" parent="1" source="L8lNgKpOyZHm4ycNdc2e-4" target="L8lNgKpOyZHm4ycNdc2e-2">
          <mxGeometry relative="1" as="geometry" />
        </mxCell>
        <mxCell id="L8lNgKpOyZHm4ycNdc2e-24" style="edgeStyle=orthogonalEdgeStyle;rounded=0;orthogonalLoop=1;jettySize=auto;html=1;exitX=1;exitY=0.5;exitDx=0;exitDy=0;startArrow=none;startFill=0;endArrow=classic;endFill=1;" edge="1" parent="1" source="L8lNgKpOyZHm4ycNdc2e-4" target="L8lNgKpOyZHm4ycNdc2e-19">
          <mxGeometry relative="1" as="geometry" />
        </mxCell>
        <mxCell id="L8lNgKpOyZHm4ycNdc2e-4" value="组织结构表" style="shape=cylinder;whiteSpace=wrap;html=1;boundedLbl=1;backgroundOutline=1;fontFamily=Tahoma;fontSize=16;" vertex="1" parent="1">
          <mxGeometry x="237" y="280" width="90" height="120" as="geometry" />
        </mxCell>
        <mxCell id="L8lNgKpOyZHm4ycNdc2e-12" value="" style="shape=image;html=1;verticalAlign=top;verticalLabelPosition=bottom;labelBackgroundColor=#ffffff;imageAspect=0;aspect=fixed;image=https://cdn0.iconfinder.com/data/icons/fatcow/32x32/sql_join_inner.png" vertex="1" parent="1">
          <mxGeometry x="266" y="234" width="32" height="32" as="geometry" />
        </mxCell>
        <mxCell id="L8lNgKpOyZHm4ycNdc2e-15" value="" style="shape=image;html=1;verticalAlign=top;verticalLabelPosition=bottom;labelBackgroundColor=#ffffff;imageAspect=0;aspect=fixed;image=https://cdn0.iconfinder.com/data/icons/fatcow/32x32/sql_join_inner.png" vertex="1" parent="1">
          <mxGeometry x="266" y="420" width="32" height="32" as="geometry" />
        </mxCell>
        <mxCell id="L8lNgKpOyZHm4ycNdc2e-16" value="" style="shape=image;html=1;verticalAlign=top;verticalLabelPosition=bottom;labelBackgroundColor=#ffffff;imageAspect=0;aspect=fixed;image=https://cdn0.iconfinder.com/data/icons/fatcow/32x32/sql_join_left.png" vertex="1" parent="1">
          <mxGeometry x="266" y="609" width="32" height="32" as="geometry" />
        </mxCell>
        <mxCell id="L8lNgKpOyZHm4ycNdc2e-21" style="edgeStyle=orthogonalEdgeStyle;rounded=0;orthogonalLoop=1;jettySize=auto;html=1;entryX=1;entryY=0.5;entryDx=0;entryDy=0;endArrow=none;endFill=0;startArrow=classic;startFill=1;" edge="1" parent="1" source="L8lNgKpOyZHm4ycNdc2e-19" target="L8lNgKpOyZHm4ycNdc2e-2">
          <mxGeometry relative="1" as="geometry" />
        </mxCell>
        <mxCell id="L8lNgKpOyZHm4ycNdc2e-27" style="edgeStyle=orthogonalEdgeStyle;rounded=0;orthogonalLoop=1;jettySize=auto;html=1;entryX=1;entryY=0.7;entryDx=0;entryDy=0;startArrow=classic;startFill=1;endArrow=none;endFill=0;" edge="1" parent="1" source="L8lNgKpOyZHm4ycNdc2e-19" target="L8lNgKpOyZHm4ycNdc2e-1">
          <mxGeometry relative="1" as="geometry" />
        </mxCell>
        <mxCell id="L8lNgKpOyZHm4ycNdc2e-28" style="edgeStyle=orthogonalEdgeStyle;rounded=0;orthogonalLoop=1;jettySize=auto;html=1;startArrow=none;startFill=0;endArrow=classic;endFill=1;" edge="1" parent="1" source="L8lNgKpOyZHm4ycNdc2e-19" target="Z7DHBaDbeOiMeZ4jyq0t-1">
          <mxGeometry relative="1" as="geometry" />
        </mxCell>
        <mxCell id="L8lNgKpOyZHm4ycNdc2e-19" value="" style="outlineConnect=0;fontColor=#232F3E;gradientColor=none;strokeColor=none;dashed=0;verticalLabelPosition=bottom;verticalAlign=top;align=center;html=1;fontSize=12;fontStyle=0;aspect=fixed;pointerEvents=1;shape=mxgraph.aws4.iot_analytics_data_store;fillColor=#333333;" vertex="1" parent="1">
          <mxGeometry x="459" y="392" width="55.38" height="80" as="geometry" />
        </mxCell>
      </root>
    </mxGraphModel>
  </diagram>
</mxfile>
